# xmcd
#
# Track frame offsets: 
#        150
#        17912
#        52725
#        73037
#        96162
#        119250
#        145650
#        170600
#        193487
#        210950
#
# Disc length: 3041 seconds
#
# Revision: 2
# Processed by: cddbd v1.5.1PL0 Copyright (c) Steve Scherf et al.
# Submitted via: ExactAudioCopy v0.95a5
#
DISCID=8b0bdf0a
DTITLE=Peter Green - Blue Guitar
DYEAR=1900
DGENRE=Blues
TTITLE0=Apostle
TTITLE1=A Fool No More
TTITLE2=Loser Two Times
TTITLE3=Slabo Day
TTITLE4=Cryin' Won't Bring You Back
TTITLE5=Gotta See Her Tonight
TTITLE6=Last Train To San Antone
TTITLE7=Woman Don't
TTITLE8=Whatcha Gonna Do?
TTITLE9=Walkin' The Road
EXTD=
EXTT0=
EXTT1=
EXTT2=
EXTT3=
EXTT4=
EXTT5=
EXTT6=
EXTT7=
EXTT8=
EXTT9=
PLAYORDER=
